<svg viewBox="0 0 32 32" fill="none" xmlns="http://www.w3.org/2000/svg" aria-hidden="true">
<path d="M17.3995 25.7773C22.1844 25.0985 25.8534 21.0065 25.8534 16.066C25.8534 13.049 24.4917 10.3713 22.3546 8.56104L17.3995 13.5015V25.7773Z" fill="currentColor"/>
<path d="M14.6194 25.7776V13.5018L9.66431 8.54248C7.5272 10.3339 6.1655 13.0304 6.1655 16.0475C6.1655 21.0068 9.83453 25.0988 14.6194 25.7776Z" fill="currentColor"/>
<path d="M24.5674 7.52386C26.8558 9.80553 28.104 12.8415 28.104 16.0471C28.104 19.2528 26.8369 22.3076 24.5674 24.5704C22.279 26.8521 19.234 28.0966 16.0189 28.0966C12.8038 28.0966 9.73995 26.8332 7.47045 24.5704C5.20095 22.3076 3.91489 19.2716 3.91489 16.0471C3.91489 12.8226 5.18203 9.78667 7.45154 7.52386C7.64066 7.33529 7.8487 7.14672 8.05674 6.95815L5.29551 4.20506C5.08747 4.39363 4.89835 4.5822 4.69031 4.77076C3.21513 6.2416 2.06147 7.93871 1.26714 9.84325C0.434988 11.8044 0 13.8975 0 16.0471C0 18.1968 0.416076 20.2899 1.26714 22.251C2.08038 24.1556 3.23404 25.8527 4.69031 27.3235C6.16548 28.7943 7.86761 29.9446 9.77778 30.7366C11.7447 31.5663 13.844 32 16 32C18.156 32 20.2553 31.5851 22.2222 30.7366C24.1324 29.9257 25.8345 28.7755 27.3097 27.3235C28.7849 25.8527 29.9385 24.1556 30.7329 22.251C31.565 20.2899 32 18.1968 32 16.0471C32 13.8975 31.5839 11.8044 30.7329 9.84325C29.9196 7.93871 28.766 6.2416 27.3097 4.77076C27.1206 4.5822 26.9125 4.39363 26.7045 4.20506L23.9622 6.95815C24.1702 7.12787 24.3593 7.31643 24.5674 7.52386Z" fill="currentColor"/>
<path d="M16 9.95639C18.7575 9.95639 20.9929 7.72758 20.9929 4.9782C20.9929 2.22881 18.7575 0 16 0C13.2425 0 11.0071 2.22881 11.0071 4.9782C11.0071 7.72758 13.2425 9.95639 16 9.95639Z" fill="currentColor"/>
</svg>
