<svg width="153" height="48" viewBox="0 0 153 48" fill="none" xmlns="http://www.w3.org/2000/svg">
<path d="M19.2705 35.1987C24.5698 34.4212 28.6332 29.7343 28.6332 24.0756C28.6332 20.6199 27.1251 17.5529 24.7583 15.4795L19.2705 21.1382V35.1987Z" fill="black"/>
<path d="M16.1908 35.1987V21.1382L10.7031 15.4579C8.33621 17.5097 6.82813 20.5983 6.82813 24.054C6.82812 29.7343 10.8916 34.4212 16.1908 35.1987Z" fill="black"/>
<path d="M27.2085 14.2916C29.7429 16.905 31.1253 20.3823 31.1253 24.054C31.1253 27.7257 29.7219 31.2246 27.2085 33.8164C24.674 36.4298 21.3018 37.8553 17.741 37.8553C14.1802 37.8553 10.787 36.4082 8.27355 33.8164C5.76007 31.2246 4.33576 27.7473 4.33576 24.054C4.33576 20.3607 5.73912 16.8834 8.2526 14.2916C8.46206 14.0756 8.69246 13.8596 8.92287 13.6436L5.86479 10.4903C5.63439 10.7062 5.42493 10.9222 5.19453 11.1382C3.56077 12.8229 2.28308 14.7667 1.40336 16.9481C0.481751 19.1944 0 21.5918 0 24.054C0 26.5162 0.460805 28.9136 1.40336 31.1598C2.30403 33.3412 3.58171 35.2851 5.19453 36.9697C6.8283 38.6544 8.71341 39.9719 10.8289 40.879C13.0073 41.8294 15.3322 42.3261 17.7201 42.3261C20.1079 42.3261 22.4328 41.851 24.6112 40.879C26.7267 39.9503 28.6118 38.6328 30.2456 36.9697C31.8793 35.2851 33.157 33.3412 34.0368 31.1598C34.9584 28.9136 35.4401 26.5162 35.4401 24.054C35.4401 21.5918 34.9793 19.1944 34.0368 16.9481C33.1361 14.7667 31.8584 12.8229 30.2456 11.1382C30.0361 10.9222 29.8057 10.7062 29.5753 10.4903L26.5382 13.6436C26.7686 13.838 26.9781 14.054 27.2085 14.2916Z" fill="black"/>
<path d="M17.7201 17.0777C20.774 17.0777 23.2498 14.5249 23.2498 11.3758C23.2498 8.22671 20.774 5.67386 17.7201 5.67386C14.6661 5.67386 12.1904 8.22671 12.1904 11.3758C12.1904 14.5249 14.6661 17.0777 17.7201 17.0777Z" fill="black"/>
<path d="M46.9544 12L43.7484 2.2H46.1004L48.8864 10.88H47.7104L50.6224 2.2H52.7224L55.5224 10.88H54.3884L57.2444 2.2H59.4144L56.2084 12H53.7724L51.2944 4.384H51.9384L49.3904 12H46.9544ZM60.6806 12V2.2H62.9486V12H60.6806ZM67.3043 9.76L67.1783 7.142L71.8683 2.2H74.3883L70.1603 6.75L68.9003 8.094L67.3043 9.76ZM65.2743 12V2.2H67.5283V12H65.2743ZM71.9803 12L68.4943 7.73L69.9783 6.12L74.6263 12H71.9803ZM75.6376 12V2.2H77.9056V12H75.6376ZM80.2313 12V2.2H82.1073L86.2793 9.116H85.2853L89.3873 2.2H91.2493L91.2773 12H89.1493L89.1353 5.462H89.5273L86.2513 10.964H85.2293L81.8833 5.462H82.3593V12H80.2313ZM93.6024 12V2.2H101.008V4.02H95.8564V10.18H101.19V12H93.6024ZM95.6884 7.912V6.148H100.406V7.912H95.6884ZM102.995 12V2.2H107.447C108.511 2.2 109.449 2.40533 110.261 2.816C111.073 3.21733 111.708 3.782 112.165 4.51C112.622 5.238 112.851 6.10133 112.851 7.1C112.851 8.08933 112.622 8.95267 112.165 9.69C111.708 10.418 111.073 10.9873 110.261 11.398C109.449 11.7993 108.511 12 107.447 12H102.995ZM105.263 10.138H107.335C107.988 10.138 108.553 10.0167 109.029 9.774C109.514 9.522 109.888 9.16733 110.149 8.71C110.42 8.25267 110.555 7.716 110.555 7.1C110.555 6.47467 110.42 5.938 110.149 5.49C109.888 5.03267 109.514 4.68267 109.029 4.44C108.553 4.188 107.988 4.062 107.335 4.062H105.263V10.138ZM114.561 12V2.2H116.829V12H114.561ZM117.867 12L122.235 2.2H124.475L128.857 12H126.477L122.893 3.348H123.789L120.191 12H117.867ZM120.051 9.9L120.653 8.178H125.693L126.309 9.9H120.051Z" fill="#202122"/>
<path d="M44.5604 30V18.8H49.8564C51.0938 18.8 52.1818 19.0293 53.1204 19.488C54.0591 19.9467 54.7898 20.592 55.3124 21.424C55.8458 22.256 56.1124 23.248 56.1124 24.4C56.1124 25.5413 55.8458 26.5333 55.3124 27.376C54.7898 28.208 54.0591 28.8533 53.1204 29.312C52.1818 29.7707 51.0938 30 49.8564 30H44.5604ZM47.7284 27.472H49.7284C50.3684 27.472 50.9231 27.3547 51.3924 27.12C51.8724 26.8747 52.2458 26.5227 52.5124 26.064C52.7791 25.5947 52.9124 25.04 52.9124 24.4C52.9124 23.7493 52.7791 23.1947 52.5124 22.736C52.2458 22.2773 51.8724 21.9307 51.3924 21.696C50.9231 21.4507 50.3684 21.328 49.7284 21.328H47.7284V27.472ZM57.7792 30V18.8H66.5632V21.248H60.9152V27.552H66.7712V30H57.7792ZM60.6912 25.504V23.136H65.8912V25.504H60.6912ZM71.8129 30L67.0289 18.8H70.4529L74.4849 28.496H72.4689L76.5969 18.8H79.7329L74.9329 30H71.8129ZM80.3886 30V18.8H89.1726V21.248H83.5246V27.552H89.3806V30H80.3886ZM83.3006 25.504V23.136H88.5006V25.504H83.3006ZM91.1386 30V18.8H94.3066V27.488H99.6506V30H91.1386ZM106.38 30.224C105.484 30.224 104.658 30.08 103.9 29.792C103.143 29.504 102.482 29.0987 101.916 28.576C101.362 28.0427 100.93 27.424 100.62 26.72C100.311 26.016 100.156 25.2427 100.156 24.4C100.156 23.5573 100.311 22.784 100.62 22.08C100.93 21.376 101.362 20.7627 101.916 20.24C102.482 19.7067 103.143 19.296 103.9 19.008C104.658 18.72 105.484 18.576 106.38 18.576C107.287 18.576 108.114 18.72 108.86 19.008C109.618 19.296 110.274 19.7067 110.828 20.24C111.383 20.7627 111.815 21.376 112.124 22.08C112.444 22.784 112.604 23.5573 112.604 24.4C112.604 25.2427 112.444 26.0213 112.124 26.736C111.815 27.44 111.383 28.0533 110.828 28.576C110.274 29.0987 109.618 29.504 108.86 29.792C108.114 30.08 107.287 30.224 106.38 30.224ZM106.38 27.6C106.807 27.6 107.202 27.5253 107.564 27.376C107.938 27.2267 108.258 27.0133 108.524 26.736C108.802 26.448 109.015 26.1067 109.164 25.712C109.324 25.3173 109.404 24.88 109.404 24.4C109.404 23.9093 109.324 23.472 109.164 23.088C109.015 22.6933 108.802 22.3573 108.524 22.08C108.258 21.792 107.938 21.5733 107.564 21.424C107.202 21.2747 106.807 21.2 106.38 21.2C105.954 21.2 105.554 21.2747 105.18 21.424C104.818 21.5733 104.498 21.792 104.22 22.08C103.954 22.3573 103.74 22.6933 103.58 23.088C103.431 23.472 103.356 23.9093 103.356 24.4C103.356 24.88 103.431 25.3173 103.58 25.712C103.74 26.1067 103.954 26.448 104.22 26.736C104.498 27.0133 104.818 27.2267 105.18 27.376C105.554 27.5253 105.954 27.6 106.38 27.6ZM114.264 30V18.8H119.384C120.408 18.8 121.288 18.9653 122.024 19.296C122.77 19.6267 123.346 20.1067 123.752 20.736C124.157 21.3547 124.36 22.0907 124.36 22.944C124.36 23.7867 124.157 24.5173 123.752 25.136C123.346 25.7547 122.77 26.2347 122.024 26.576C121.288 26.9067 120.408 27.072 119.384 27.072H116.024L117.432 25.696V30H114.264ZM117.432 26.032L116.024 24.576H119.192C119.853 24.576 120.344 24.432 120.664 24.144C120.994 23.856 121.16 23.456 121.16 22.944C121.16 22.4213 120.994 22.016 120.664 21.728C120.344 21.44 119.853 21.296 119.192 21.296H116.024L117.432 19.84V26.032ZM125.904 30V18.8H134.688V21.248H129.04V27.552H134.896V30H125.904ZM128.816 25.504V23.136H134.016V25.504H128.816ZM136.654 30V18.8H141.662C143.294 18.8 144.548 19.1733 145.422 19.92C146.308 20.656 146.75 21.664 146.75 22.944C146.75 23.7867 146.548 24.5173 146.142 25.136C145.737 25.744 145.161 26.2133 144.414 26.544C143.678 26.864 142.798 27.024 141.774 27.024H138.414L139.822 25.696V30H136.654ZM143.582 30L140.798 25.92H144.174L146.974 30H143.582ZM139.822 26.032L138.414 24.576H141.582C142.244 24.576 142.734 24.432 143.054 24.144C143.385 23.856 143.55 23.456 143.55 22.944C143.55 22.4213 143.385 22.016 143.054 21.728C142.734 21.44 142.244 21.296 141.582 21.296H138.414L139.822 19.84V26.032ZM44.5604 46V34.8H49.6804C50.7044 34.8 51.5844 34.9653 52.3204 35.296C53.0671 35.6267 53.6431 36.1067 54.0484 36.736C54.4538 37.3547 54.6564 38.0907 54.6564 38.944C54.6564 39.7867 54.4538 40.5173 54.0484 41.136C53.6431 41.7547 53.0671 42.2347 52.3204 42.576C51.5844 42.9067 50.7044 43.072 49.6804 43.072H46.3204L47.7284 41.696V46H44.5604ZM47.7284 42.032L46.3204 40.576H49.4884C50.1498 40.576 50.6404 40.432 50.9604 40.144C51.2911 39.856 51.4564 39.456 51.4564 38.944C51.4564 38.4213 51.2911 38.016 50.9604 37.728C50.6404 37.44 50.1498 37.296 49.4884 37.296H46.3204L47.7284 35.84V42.032ZM62.0053 46.224C61.1093 46.224 60.2826 46.08 59.5253 45.792C58.768 45.504 58.1066 45.0987 57.5413 44.576C56.9866 44.0427 56.5546 43.424 56.2453 42.72C55.936 42.016 55.7813 41.2427 55.7813 40.4C55.7813 39.5573 55.936 38.784 56.2453 38.08C56.5546 37.376 56.9866 36.7627 57.5413 36.24C58.1066 35.7067 58.768 35.296 59.5253 35.008C60.2826 34.72 61.1093 34.576 62.0053 34.576C62.912 34.576 63.7386 34.72 64.4853 35.008C65.2426 35.296 65.8986 35.7067 66.4533 36.24C67.008 36.7627 67.44 37.376 67.7493 38.08C68.0693 38.784 68.2293 39.5573 68.2293 40.4C68.2293 41.2427 68.0693 42.0213 67.7493 42.736C67.44 43.44 67.008 44.0533 66.4533 44.576C65.8986 45.0987 65.2426 45.504 64.4853 45.792C63.7386 46.08 62.912 46.224 62.0053 46.224ZM62.0053 43.6C62.432 43.6 62.8266 43.5253 63.1893 43.376C63.5626 43.2267 63.8826 43.0133 64.1493 42.736C64.4266 42.448 64.64 42.1067 64.7893 41.712C64.9493 41.3173 65.0293 40.88 65.0293 40.4C65.0293 39.9093 64.9493 39.472 64.7893 39.088C64.64 38.6933 64.4266 38.3573 64.1493 38.08C63.8826 37.792 63.5626 37.5733 63.1893 37.424C62.8266 37.2747 62.432 37.2 62.0053 37.2C61.5786 37.2 61.1786 37.2747 60.8053 37.424C60.4426 37.5733 60.1226 37.792 59.8453 38.08C59.5786 38.3573 59.3653 38.6933 59.2053 39.088C59.056 39.472 58.9813 39.9093 58.9813 40.4C58.9813 40.88 59.056 41.3173 59.2053 41.712C59.3653 42.1067 59.5786 42.448 59.8453 42.736C60.1226 43.0133 60.4426 43.2267 60.8053 43.376C61.1786 43.5253 61.5786 43.6 62.0053 43.6ZM69.8886 46V34.8H74.8966C76.5286 34.8 77.7819 35.1733 78.6566 35.92C79.5419 36.656 79.9846 37.664 79.9846 38.944C79.9846 39.7867 79.7819 40.5173 79.3766 41.136C78.9712 41.744 78.3952 42.2133 77.6486 42.544C76.9126 42.864 76.0326 43.024 75.0086 43.024H71.6486L73.0566 41.696V46H69.8886ZM76.8166 46L74.0326 41.92H77.4086L80.2086 46H76.8166ZM73.0566 42.032L71.6486 40.576H74.8166C75.4779 40.576 75.9686 40.432 76.2886 40.144C76.6192 39.856 76.7846 39.456 76.7846 38.944C76.7846 38.4213 76.6192 38.016 76.2886 37.728C75.9686 37.44 75.4779 37.296 74.8166 37.296H71.6486L73.0566 35.84V42.032ZM83.9601 46V37.312H80.5201V34.8H90.5521V37.312H87.1281V46H83.9601ZM89.8258 46L94.7698 34.8H97.8898L102.85 46H99.5538L95.6818 36.352H96.9298L93.0578 46H89.8258ZM92.5298 43.824L93.3458 41.488H98.8178L99.6338 43.824H92.5298ZM103.748 46V34.8H106.916V43.488H112.26V46H103.748Z" fill="#202122"/>
</svg>
